<svg version="1.1" id="Layer_1" xmlns="http://www.w3.org/2000/svg" xmlns:xlink="http://www.w3.org/1999/xlink" x="0px" y="0px"
	 width="100%" viewBox="0 0 1024 1024" enable-background="new 0 0 1024 1024" xml:space="preserve">
<path fill="#000000" opacity="1.000000" stroke="none" 
	d="
M740.730591,579.167664 
	C614.929932,579.165222 489.597961,579.167786 364.265991,579.145386 
	C361.948975,579.144958 359.564423,579.144409 357.326935,578.635681 
	C348.415070,576.609802 347.514709,575.663757 347.487762,566.577393 
	C347.285126,498.250122 347.154877,429.922546 347.037689,361.595001 
	C346.999390,339.262146 347.062012,316.929108 347.088440,294.596130 
	C347.099243,285.445953 346.843811,285.212219 337.450989,285.206421 
	C308.118103,285.188354 278.785187,285.144104 249.452301,285.123718 
	C246.774750,285.121857 244.221680,284.935272 241.677841,283.762024 
	C238.061920,282.094330 235.848312,279.179657 236.312668,275.605652 
	C236.824097,271.669250 239.717316,268.736450 243.915878,267.964600 
	C246.019394,267.577942 248.234619,267.753418 250.399368,267.751923 
	C338.731689,267.690369 427.064819,267.819153 515.395691,267.430450 
	C533.036133,267.352814 550.696350,268.006836 568.328674,267.036987 
	C572.719482,266.795502 575.231262,269.787476 578.399597,272.326294 
	C588.659363,263.523682 601.330261,258.760803 611.936768,250.712555 
	C613.780090,249.313873 615.963989,248.030746 618.413147,249.262421 
	C621.054077,250.590530 620.573303,253.135010 620.390686,255.445679 
	C620.011719,260.241486 619.541809,265.030060 619.153381,269.825195 
	C618.920410,272.701569 616.727661,274.108673 614.770325,275.583160 
	C608.795105,280.084534 602.735474,284.474152 596.690552,288.882294 
	C596.028625,289.364990 595.285461,289.786865 594.517700,290.065399 
	C589.499390,291.886383 589.445068,292.063232 593.190308,296.781769 
	C598.235474,293.427277 603.337646,290.073944 608.398926,286.659943 
	C615.026062,282.189728 621.634888,277.692047 628.221375,273.162262 
	C630.319885,271.719116 632.538208,271.180115 634.773315,272.478455 
	C637.155640,273.862366 637.438110,276.146484 636.640991,278.607971 
	C635.851440,281.045807 635.728577,283.608521 636.091370,286.036804 
	C636.997742,292.102997 633.835510,295.890198 629.266724,298.810181 
	C621.156921,303.993286 612.917114,308.972931 604.307190,314.300415 
	C605.354431,318.690521 608.516724,321.778259 610.602112,324.998901 
	C622.417725,316.642822 633.751892,308.569916 646.042236,302.016266 
	C652.471863,298.587738 655.265503,300.605652 655.301697,307.718689 
	C655.346375,316.498688 653.857788,324.084564 644.271851,327.859222 
	C639.868591,329.593079 635.933105,332.704865 632.076660,335.582153 
	C628.461792,338.279266 624.892639,340.294708 619.796265,338.263641 
	C620.671387,343.612488 624.321960,346.436737 626.859192,350.469666 
	C634.120972,343.598419 643.338318,340.260223 650.668884,334.011597 
	C654.168823,331.028198 658.063782,328.290863 662.873779,327.581940 
	C666.419617,327.059326 668.335327,328.462128 668.147278,332.226227 
	C668.105713,333.058136 668.095947,333.892151 668.091797,334.725311 
	C668.008667,351.611145 668.009277,351.611084 653.201843,359.831635 
	C648.288879,362.559143 643.664551,365.917206 637.130615,366.647736 
	C639.334961,371.954620 642.534729,375.967834 645.643799,380.153687 
	C655.752869,370.382111 667.745605,364.088043 678.684265,356.339203 
	C682.225525,353.830627 685.781921,355.782043 686.074524,360.213196 
	C686.381104,364.856506 686.118164,369.538574 686.071472,374.203369 
	C686.053223,376.032776 685.027283,377.272461 683.593018,378.301208 
	C676.952759,383.063782 670.006897,387.312561 662.785461,391.144531 
	C660.132996,392.552002 657.278015,392.102081 653.075439,392.734558 
	C667.903320,416.269928 682.314209,439.143494 697.244873,462.842072 
	C700.656921,452.076691 710.537109,450.042328 717.576172,444.668396 
	C721.798828,441.444702 726.355652,438.605591 730.978271,435.972931 
	C736.303040,432.940460 739.105408,434.721954 739.104187,440.762482 
	C739.102173,450.943604 736.358215,459.685883 726.818237,465.126373 
	C724.089905,466.682373 721.582092,468.685059 719.161133,470.707855 
	C713.732117,475.243958 710.634033,475.617859 703.836670,471.937012 
	C705.909119,478.711853 710.453918,483.422546 714.211548,489.029633 
	C724.455872,479.452179 737.161316,474.757965 748.090088,467.247833 
	C749.308838,466.410309 750.676453,465.662079 752.085510,465.252319 
	C756.336670,464.016052 758.508789,465.757019 758.232910,470.195343 
	C757.969116,474.437805 756.001587,478.411194 756.730103,482.905823 
	C757.043823,484.841125 755.302002,486.899323 753.372437,488.168823 
	C746.978455,492.375610 740.636108,496.662933 734.183899,500.778320 
	C731.214905,502.672058 727.881104,503.720917 723.574158,503.423218 
	C724.806641,508.755402 729.184143,511.599976 730.456970,516.584473 
	C740.936035,506.236786 754.082703,501.152588 764.864807,492.586761 
	C767.972168,490.118073 771.470825,492.190735 771.080994,496.250183 
	C770.499573,502.306335 770.038147,508.363892 769.533447,514.423523 
	C769.099060,519.639404 764.062195,521.276367 760.468750,523.696777 
	C757.047485,526.001160 753.070618,527.486572 749.319641,529.293884 
	C745.781738,530.998596 742.562317,529.913452 738.944458,527.185730 
	C740.478760,533.966003 744.653381,538.047852 747.852905,543.564941 
	C750.307312,536.997681 755.074707,534.002380 760.196045,531.023071 
	C766.801086,527.180603 772.922058,522.512817 779.322937,518.309265 
	C781.945496,516.587036 785.136780,515.557678 787.738586,517.649658 
	C790.570374,519.926514 789.042053,523.100647 788.062683,525.958740 
	C786.826294,529.566895 785.463135,533.154846 784.566101,536.851379 
	C782.195068,546.622009 773.996094,550.384949 766.377869,554.641418 
	C763.280945,556.371704 759.541748,554.814819 755.483215,555.452942 
	C758.236572,559.803711 760.716125,563.882080 763.364258,567.847961 
	C765.031799,570.345337 766.215027,573.092407 764.913940,575.813782 
	C763.577209,578.609802 760.557251,579.023376 757.617126,579.163330 
	C752.141663,579.423950 746.669922,578.266052 740.730591,579.167664 
M664.101196,456.363495 
	C661.725464,452.767395 659.276367,449.217316 656.986633,445.567291 
	C646.570801,428.963776 636.246338,412.302765 625.800415,395.718262 
	C613.761841,376.605072 601.643982,357.541718 589.533264,338.474060 
	C583.120605,328.377563 576.773376,318.235718 570.147400,308.280212 
	C567.351807,304.079803 565.950195,304.263031 563.329712,308.457001 
	C557.789917,317.323486 552.404663,326.287201 546.818604,335.124084 
	C535.804810,352.547485 524.724976,369.929443 513.605103,387.285370 
	C511.429199,390.681671 511.079163,393.622284 513.324890,397.373016 
	C523.148010,413.778961 534.122803,429.444397 543.907532,445.886353 
	C553.765930,462.452087 564.743530,478.348602 575.084106,494.631470 
	C587.201294,513.711853 599.126770,532.913879 611.219238,552.010132 
	C613.326538,555.337891 616.118530,557.663269 620.540100,557.728821 
	C640.000610,558.017456 659.453003,557.660706 678.931946,558.486816 
	C692.810303,559.075317 706.827759,557.576599 720.804565,557.675781 
	C725.442139,557.708740 726.149109,556.486328 724.399109,552.271240 
	C723.953979,551.199219 723.401672,550.157104 722.783325,549.173706 
	C713.329163,534.138306 703.878967,519.100403 694.380920,504.092743 
	C684.434448,488.376404 674.437805,472.691772 664.101196,456.363495 
M485.508850,558.818665 
	C515.486938,558.814148 545.465088,558.810303 575.443176,558.802490 
	C576.775208,558.802124 578.118469,558.868286 579.437195,558.725159 
	C583.413208,558.293701 584.362671,556.538574 582.412781,553.114502 
	C580.198425,549.225952 578.071045,545.264099 575.548462,541.578796 
	C562.714417,522.829041 551.166687,503.254395 538.862854,484.165894 
	C525.460754,463.373596 512.360535,442.365387 499.193787,421.410492 
	C496.184082,416.620514 495.148956,416.484253 491.960815,421.371521 
	C484.789398,432.364990 477.946930,443.572510 470.863983,454.624664 
	C469.037109,457.475220 467.330811,460.304199 467.327881,463.782196 
	C467.302917,493.427032 467.332367,523.071899 467.273651,552.716614 
	C467.265686,556.746704 469.347473,558.541931 473.026306,558.716736 
	C476.848602,558.898438 480.684418,558.795410 485.508850,558.818665 
M530.924805,314.446960 
	C535.080444,307.872223 538.440613,300.816010 543.297607,294.651886 
	C544.863770,292.664246 547.121460,290.046356 545.932800,287.502960 
	C544.545532,284.534668 540.978027,285.336395 538.245667,285.325226 
	C516.915344,285.237885 495.584595,285.227417 474.254028,285.250977 
	C468.308167,285.257568 467.280182,286.278778 467.276520,292.285339 
	C467.253479,330.280670 467.268951,368.276001 467.325470,406.271240 
	C467.328003,407.961395 466.649963,410.000366 468.606201,411.171112 
	C469.943451,411.322693 470.472107,410.456726 471.004608,409.595062 
	C477.912170,398.417908 484.726593,387.181824 491.747986,376.076630 
	C504.628235,355.705048 517.630554,335.410675 530.924805,314.446960 
z"/>
<path fill="#000000" opacity="1.000000" stroke="none" 
	d="
M467.741455,745.899048 
	C459.489502,748.371887 451.341736,747.085144 443.259918,747.019043 
	C440.524689,746.996765 440.447662,744.897217 441.641571,742.638489 
	C456.321075,714.867493 470.973663,687.082153 485.588867,659.277222 
	C491.465240,648.097656 497.253357,636.871521 503.029358,625.639648 
	C503.937134,623.874329 504.643860,621.993042 505.305847,620.116821 
	C506.311646,617.266113 506.112915,614.839661 502.690277,613.742249 
	C500.981964,613.194580 499.619812,612.238892 499.916046,610.175659 
	C500.285858,607.600403 502.421570,607.847351 504.190460,607.813110 
	C509.186737,607.716431 514.201355,607.977783 519.178223,607.643616 
	C523.625488,607.344910 526.217651,609.029419 528.194031,613.022644 
	C541.860901,640.637146 555.693542,668.169678 569.487244,695.721375 
	C576.420044,709.568970 583.382629,723.401672 590.332886,737.240540 
	C590.631775,737.835693 590.962341,738.415588 591.245667,739.017944 
	C594.852173,746.683716 594.482544,747.265503 585.982056,747.266663 
	C580.484253,747.267395 574.980713,747.097168 569.490723,747.300842 
	C565.772461,747.438843 563.703857,745.850647 562.184692,742.569458 
	C558.974060,735.635315 555.760193,728.675293 552.040039,722.009155 
	C536.699707,694.520264 501.921936,687.304199 476.196198,705.529419 
	C467.980713,711.349487 460.917450,717.239014 458.880768,727.647766 
	C457.584869,734.270508 458.921082,737.815674 464.927551,740.587708 
	C467.216309,741.644043 468.463959,742.960754 467.741455,745.899048 
M488.895172,692.240417 
	C504.590240,686.075989 520.389893,686.812439 537.482605,692.391052 
	C527.589966,671.836731 518.500916,652.367188 508.119751,633.188843 
	C504.290375,636.699463 474.096771,694.869019 472.972534,700.242493 
	C478.098114,697.435852 482.800323,694.287659 488.895172,692.240417 
z"/>
<path fill="#000000" opacity="1.000000" stroke="none" 
	d="
M629.859497,720.000000 
	C629.864075,687.018982 629.875061,654.537903 629.873657,622.056885 
	C629.873413,616.124207 628.410767,614.357483 622.685486,614.330383 
	C607.484863,614.258606 593.058594,616.463196 582.518311,629.143066 
	C580.878601,631.115601 578.680298,632.046875 576.290710,630.880371 
	C573.811951,629.670166 574.974060,627.447388 575.441772,625.580200 
	C576.370483,621.872864 577.736328,618.239014 578.288635,614.481812 
	C579.138123,608.703125 582.493713,607.590271 587.737244,607.621277 
	C617.885010,607.799500 648.034485,607.700256 678.183350,607.693359 
	C685.845398,607.691589 693.509155,607.776184 701.168762,607.637878 
	C704.939270,607.569763 706.909607,608.821960 707.582703,612.842957 
	C708.347412,617.411621 709.985046,621.831970 711.198364,626.328918 
	C711.617188,627.881165 712.566406,629.673157 710.526123,630.754822 
	C708.544983,631.805237 706.380371,631.558533 705.123108,629.713562 
	C694.232361,613.730774 677.512817,614.549622 661.157349,614.344482 
	C657.865723,614.303162 656.377563,616.303345 656.336060,619.460571 
	C656.292236,622.791504 656.290894,626.123108 656.289551,629.454407 
	C656.275269,665.266907 656.256348,701.079407 656.258423,736.891907 
	C656.259033,747.274719 656.287964,747.274841 645.843323,747.274780 
	C642.678467,747.274780 639.500977,747.094299 636.351807,747.316345 
	C631.668335,747.646545 629.647522,745.823425 629.819824,740.986084 
	C630.062866,734.165527 629.868774,727.329468 629.859497,720.000000 
z"/>
<path fill="#000000" opacity="1.000000" stroke="none" 
	d="
M406.228455,698.000000 
	C406.319427,713.495667 406.334869,728.492432 406.570190,743.485840 
	C406.612640,746.190552 405.586578,747.190002 403.184052,747.201416 
	C396.851288,747.231506 390.518250,747.204773 384.185303,747.191162 
	C381.210175,747.184753 380.051727,745.436035 380.016113,742.711914 
	C379.970398,739.212524 379.969269,735.712463 379.964294,732.212646 
	C379.912231,695.546387 379.864777,658.880127 379.811981,622.213867 
	C379.801666,615.047607 379.007263,614.282593 371.711273,614.245972 
	C361.067596,614.192566 350.780182,615.726013 341.428894,621.219482 
	C338.256470,623.083130 335.375427,625.326965 333.173889,628.365234 
	C331.601624,630.535095 329.468018,632.083679 326.752716,630.955383 
	C323.658813,629.669800 325.010864,627.011780 325.622131,624.878967 
	C331.562744,604.150574 326.615570,607.940186 347.025360,607.799194 
	C381.356628,607.561951 415.690887,607.775513 450.022614,607.575989 
	C454.703461,607.548828 457.079193,608.946777 457.947357,613.628601 
	C458.733368,617.867310 460.216339,621.975342 461.359222,626.150024 
	C461.828125,627.862854 462.915070,629.872559 460.482239,630.895447 
	C457.993805,631.941711 455.836487,631.058167 454.480560,628.773315 
	C451.153595,623.166992 446.179260,619.773865 440.111908,617.811584 
	C430.649292,614.751282 420.935242,613.757324 411.030579,614.331238 
	C406.638458,614.585754 406.229187,617.533630 406.232941,621.000244 
	C406.260681,646.500183 406.236237,672.000061 406.228455,698.000000 
z"/>
<path fill="#000000" opacity="1.000000" stroke="none" 
	d="
M559.035461,785.974487 
	C565.627075,789.206787 567.268982,794.661255 565.650391,801.846802 
	C569.875671,800.577087 571.104065,797.217346 572.552917,794.193604 
	C575.430908,788.187195 578.134766,782.097473 580.919128,776.046143 
	C581.771301,774.194275 582.647766,772.365601 585.173218,772.487671 
	C587.390991,772.594849 588.259338,774.231323 589.056519,775.908569 
	C592.417358,782.979736 595.725281,790.076233 599.114746,797.133606 
	C600.196655,799.386414 601.303467,801.928223 604.479858,801.434265 
	C607.652344,800.940918 607.959351,798.224976 608.275757,795.716370 
	C608.775391,791.755188 609.216003,787.785889 609.623352,783.814087 
	C609.836243,781.737244 609.627319,779.803955 607.406921,778.726074 
	C606.127380,778.104919 605.165405,777.151062 605.563904,775.572937 
	C605.968384,773.970703 607.165161,772.887329 608.712830,772.714905 
	C611.849060,772.365601 615.020325,772.134705 618.172119,772.182800 
	C620.723328,772.221619 621.676086,774.054199 622.308838,776.410889 
	C623.563416,781.083618 626.048462,785.181274 629.374390,790.067871 
	C631.471985,785.300781 634.498718,781.859436 634.407715,777.207764 
	C634.338318,773.658630 636.172363,772.426208 639.219849,772.207031 
	C641.044006,772.075867 642.884460,772.080078 644.714050,772.136841 
	C646.879272,772.203918 649.198914,772.153564 650.233582,774.638367 
	C651.282593,777.157837 649.374390,778.189758 647.732422,779.382812 
	C647.234680,779.744568 646.594482,780.522278 646.681458,780.985107 
	C647.997742,787.986633 645.980896,795.747375 651.201111,801.847839 
	C652.391724,803.239258 653.181946,804.538147 652.496399,806.309143 
	C651.863098,807.945007 650.427185,808.350342 648.831726,808.354614 
	C644.999146,808.364868 641.166260,808.390930 637.333984,808.358643 
	C635.365601,808.342102 633.631409,807.674194 633.000305,805.649902 
	C632.365234,803.613098 633.808777,802.661072 635.388367,801.853027 
	C639.662842,799.666687 636.122498,796.772888 636.517822,793.543091 
	C633.786377,795.162537 634.005615,797.691040 632.820190,799.329895 
	C630.982788,801.869934 631.434814,806.625916 627.085693,806.656250 
	C622.946411,806.685059 622.614197,802.217712 620.830994,799.612610 
	C619.077698,797.051331 617.841370,794.136169 615.771606,790.231995 
	C615.068604,795.635681 614.189819,799.634949 619.204529,801.956055 
	C620.694885,802.645874 621.375732,804.072754 620.808105,805.727356 
	C620.278442,807.271179 619.068542,808.263794 617.428589,808.271606 
	C607.602661,808.318176 597.772583,808.438293 587.952576,808.190063 
	C585.251770,808.121765 583.637268,806.137573 585.184021,803.275024 
	C585.956482,801.845276 588.723022,801.171692 586.896423,798.895081 
	C585.033386,796.572937 582.358276,797.315308 579.913757,797.591431 
	C578.871643,797.709167 578.140381,798.454285 577.773499,799.481812 
	C577.840576,799.798889 577.812622,800.197876 577.997742,800.415222 
	C579.390503,802.049316 582.677429,802.532166 581.613586,805.651428 
	C580.474548,808.991272 577.401550,808.449158 574.806763,808.328674 
	C571.094238,808.156372 567.079285,809.502747 563.881714,806.285034 
	C562.815369,805.212036 561.737183,806.171326 560.712585,806.687073 
	C552.400635,810.870911 544.696777,809.259094 537.201050,804.105286 
	C531.032410,809.745667 523.885620,810.360657 516.333496,807.423218 
	C512.680176,806.002319 509.812805,809.214172 506.208252,808.527649 
	C502.987244,807.914124 499.537903,808.609009 496.244141,808.238831 
	C492.536438,807.822021 491.338013,804.924194 493.650970,802.457703 
	C494.537933,801.512024 496.065979,801.043457 495.200012,799.320312 
	C494.529724,797.986572 493.315887,797.580383 491.915192,797.403137 
	C489.447418,797.090942 488.102051,797.483337 485.758240,799.398438 
	C485.805725,799.717224 485.748901,800.126282 485.926758,800.339050 
	C487.408569,802.111511 490.850464,802.808350 489.611084,806.081360 
	C488.337830,809.443787 485.169312,808.208008 482.636902,808.376099 
	C482.139374,808.409180 481.631500,808.423340 481.138397,808.363647 
	C478.305878,808.020630 474.571747,809.724792 473.005035,806.274963 
	C471.348419,802.627258 475.778351,801.999512 477.227539,799.836426 
	C481.796326,793.017151 484.463074,785.241516 488.080994,777.942444 
	C489.219025,775.646484 489.490051,772.470276 493.087555,772.568787 
	C496.308105,772.657043 496.818542,775.575317 497.869263,777.706177 
	C500.667999,783.381958 503.226929,789.175598 505.996704,794.866150 
	C506.992523,796.912170 507.623962,799.264160 509.730896,800.618591 
	C510.046539,800.409912 510.481659,800.278931 510.520813,800.072693 
	C511.021637,797.436584 509.944885,793.911926 513.656677,792.952026 
	C517.436401,791.974487 517.456177,795.828613 518.985779,797.739502 
	C519.805908,798.764038 520.655151,799.864685 521.729614,800.565735 
	C524.018127,802.059204 526.982910,802.548950 528.477783,800.175110 
	C530.262756,797.340576 527.088623,796.248596 525.193054,795.178772 
	C522.588989,793.709290 519.708496,792.720459 517.140625,791.198120 
	C513.274475,788.906189 510.928894,785.575317 511.846863,780.825500 
	C512.725586,776.278992 516.990601,772.810120 521.815125,772.454163 
	C523.641418,772.319397 525.490723,771.964783 527.290833,772.130676 
	C530.147400,772.393860 533.482361,771.671692 535.235779,775.016418 
	C537.177063,778.719482 536.849854,783.346130 534.320129,786.774597 
	C536.956482,788.788574 538.094910,792.528503 542.334595,792.802551 
	C544.099609,792.916687 544.303589,795.292542 545.121460,796.699219 
	C546.700134,799.414246 548.678833,801.570679 552.085266,801.653015 
	C553.630249,801.690369 555.262939,801.371826 555.856873,799.777588 
	C556.490051,798.078064 555.279846,796.894531 553.919373,796.158875 
	C551.432007,794.813782 548.860107,793.624023 546.315613,792.385620 
	C540.360840,789.487427 537.484497,785.339783 538.456787,781.032288 
	C539.665161,775.679077 544.343384,772.214172 550.758362,772.148438 
	C553.242126,772.122925 555.727051,772.564575 558.216675,772.689758 
	C563.220459,772.941528 562.339111,777.170288 563.122009,780.106628 
	C563.882629,782.959229 563.387085,785.508667 559.148926,785.733459 
	C557.615295,783.934448 556.741821,782.322937 555.649658,780.876465 
	C553.554077,778.100891 551.683105,778.084534 549.013428,780.757996 
	C551.736450,783.706482 555.535889,784.560364 559.035461,785.974487 
M522.685608,781.527100 
	C524.764893,783.049255 526.917908,784.372253 529.819336,784.492676 
	C529.403870,781.188293 528.000000,779.156311 524.986145,778.795044 
	C523.590515,778.627686 521.834839,778.718933 522.685608,781.527100 
z"/>
<path fill="#000000" opacity="1.000000" stroke="none" 
	d="
M754.393188,700.000122 
	C754.694946,714.971252 753.702759,729.459167 754.924744,743.916687 
	C755.139404,746.455872 753.691589,747.190002 751.625732,747.206604 
	C745.465149,747.256042 739.303650,747.234680 733.142700,747.204590 
	C730.267334,747.190552 728.913208,745.613037 728.873230,742.809204 
	C728.849426,741.144226 728.831299,739.478943 728.830505,737.813843 
	C728.812866,700.178650 728.806335,662.543457 728.773438,624.908264 
	C728.768921,619.697815 729.148132,614.250610 722.081360,612.857117 
	C720.848511,612.614075 720.398132,611.314941 720.526917,610.037231 
	C720.666382,608.655212 721.559326,607.946167 722.875977,607.936584 
	C732.531616,607.866272 742.187744,607.785095 751.843140,607.827454 
	C754.132690,607.837463 754.799988,609.419434 754.788086,611.590698 
	C754.627441,640.893677 754.516541,670.196899 754.393188,700.000122 
z"/>
<path fill="#000000" opacity="1.000000" stroke="none" 
	d="
M593.251099,226.070801 
	C596.585876,234.096313 596.691528,241.636688 591.733643,248.592880 
	C587.764648,254.161606 582.771362,258.853699 577.565063,263.262909 
	C573.544678,266.667816 568.285889,266.291412 564.696228,262.135620 
	C559.197937,255.770126 555.918884,248.021652 553.035278,240.312347 
	C551.065186,235.045502 555.085327,230.518158 557.692627,226.106995 
	C563.525574,216.238647 587.881348,212.895721 593.251099,226.070801 
z"/>
<path fill="#000000" opacity="1.000000" stroke="none" 
	d="
M664.212952,404.262726 
	C665.146057,401.875732 666.196289,399.887421 668.197937,398.865845 
	C678.020569,393.852814 685.828064,385.815887 695.669006,380.791473 
	C701.327820,377.902222 704.042664,379.241302 704.228882,385.732239 
	C704.281372,387.562592 704.056335,389.497833 704.568787,391.201416 
	C706.860962,398.821167 703.681396,403.476044 697.022217,406.868469 
	C691.546143,409.658142 686.372620,413.037506 681.028564,416.091736 
	C677.613525,418.043457 674.253784,417.972870 671.463440,415.001953 
	C668.550049,411.900024 664.960205,409.218964 664.212952,404.262726 
z"/>
<path fill="#000000" opacity="1.000000" stroke="none" 
	d="
M705.114868,438.185852 
	C703.112671,439.415527 701.490967,440.591766 699.733582,441.507904 
	C690.419556,446.363220 684.548889,444.051788 681.128235,434.247894 
	C680.104248,431.312958 681.220520,428.964752 683.423645,427.158356 
	C692.306824,419.874756 701.915100,413.593262 711.642456,407.541199 
	C715.578979,405.092010 718.969788,407.691956 718.695068,412.244385 
	C718.485107,415.723175 718.188232,419.215363 718.295471,422.690308 
	C718.456970,427.924133 716.441040,431.592102 711.673096,433.919708 
	C709.455444,435.002289 707.504517,436.631195 705.114868,438.185852 
z"/>
</svg>